<?xml version="1.0"?>
<svg xmlns="http://www.w3.org/2000/svg" xmlns:xlink="http://www.w3.org/1999/xlink" xmlns:svgjs="http://svgjs.com/svgjs" version="1.1" width="512" height="512" x="0" y="0" viewBox="0 0 512.066 512.066" style="enable-background:new 0 0 512 512" xml:space="preserve" class=""><g><g xmlns="http://www.w3.org/2000/svg"><g><path d="m172.213 177.247c3.455-2.284 4.405-6.937 2.121-10.393-19.345-28.368-21.337-68.436-5.443-98.387.624.964 1.257 1.95 1.9 2.992 3.294 5.85 5.028 12.739 6.791 20.481 2.528 12.071 7.797 37.063 28.961 44.501.113.039.227.076.342.11 7.143 2.263 15.599 1.428 20.59-3.984 4.79-5.027 5.893-12.616 3.031-20.831-.301-.919-.629-1.838-.958-2.758-.917-2.561-1.783-4.979-1.68-6.82.118-2.116 1.576-4.641 4.335-7.502 1.013-1.051 2.119-2.087 3.29-3.184 2.447-2.293 4.978-4.663 7.215-7.66 4.8-6.432 6.334-13.767 4.209-20.121-1.145-3.431-3.184-6.045-4.822-8.146-.968-1.241-1.883-2.415-2.321-3.389-1.21-2.679-.036-7.103 3.141-11.832.023-.035.047-.07.07-.105.717-1.108 1.755-2.496 2.853-3.966 4.078-5.453 9.778-13.078 9.721-21.139 14.748-.09 28.847 3.164 41.439 8.994-2.589 3.146-4.732 6.684-6.27 10.468-3.972 9.758-4.345 21.209-1.056 32.261 2.201 8.368 8.483 13.12 15.724 11.502.102-.023.204-.05.304-.077 3.153-.865 5.165-2.906 6.368-4.125.188-.189.373-.381.562-.557 2.509-2.331 7.946-2.067 13.324-1.582 7.988.99 13.843.044 18.131-1.701 21.505 42.17 6.102 97.466-32.15 122.943-.574-1.311-1.177-2.576-1.769-3.819-1.323-2.776-2.573-5.398-3.162-7.905-1.498-6.394 1.048-13.439 3.448-18.224.02-.039.039-.079.058-.118 1.729-3.604 4.052-7.162 6.511-10.929 5.156-7.897 11-16.848 11.822-27.914.005-.076.01-.153.013-.229.374-8.594-3.331-16.618-9.727-20.98-10.354-6.919-22.92-2.662-28.996-.589-10.185 3.317-20.366 6.635-30.546 9.957-11.638 3.425-22.918 9.044-26.788 26.663-1.356 6.296-1.331 12.424-1.306 18.354.019 4.251.051 11.366 4.896 16.703 2.673 2.95 5.924 4.375 8.536 5.52 1.297.568 2.523 1.105 3.241 1.65 1.925 1.462 2.835 4.903 3.889 8.888 1.249 4.722 2.664 10.073 6.493 14.559 2.078 2.436 4.442 4.182 6.877 5.549-24.73 2.401-49.482-4.648-69.084-19.855-3.279-2.528-7.989-1.921-10.519 1.36-2.529 3.28-1.92 7.989 1.361 10.519 73.16 57.089 182.152 3.438 181.706-89.432.002-62.231-50.626-112.86-112.856-112.86-88.885-.764-143.82 101.387-94.213 175.018 2.284 3.455 6.937 4.406 10.393 2.121zm116.299 27.388c-3.285-2.268-6.853-3.637-10.001-4.846-3.622-1.39-6.75-2.59-8.552-4.702-1.612-1.888-2.481-5.176-3.402-8.656-1.462-5.531-3.283-12.415-9.32-17-2.138-1.622-4.345-2.589-6.292-3.442-1.37-.601-2.923-1.28-3.445-1.856-.982-1.082-.999-4.873-1.008-6.692-.022-5.362-.043-10.427.963-15.101 1.919-8.735 5.765-12.354 16.46-15.488.073-.021.146-.044.218-.067 10.23-3.338 20.46-6.672 30.695-10.006l.098-.032c6.051-2.064 12.162-3.63 15.811-1.192 1.998 1.362 3.252 4.481 3.139 7.785-.575 7.166-4.869 13.744-9.414 20.705-2.604 3.989-5.296 8.112-7.446 12.581-5.084 10.16-6.637 19.686-4.615 28.315.958 4.08 2.694 7.722 4.226 10.935.832 1.746 1.619 3.413 2.254 5.059-3.172 1.552-6.44 2.936-9.792 4.142-.193-.148-.372-.299-.577-.442zm47.773-147.599c-2.293.451-5.233.488-8.587.062-.086-.011-.173-.02-.26-.027-6.132-.559-16.162-1.47-23.696 4.396-1.988-7.438-1.684-14.936.882-21.24 1.315-3.237 3.318-6.181 5.776-8.586 10.121 6.788 18.908 15.414 25.885 25.395zm-95.85-40.68c-.767 3.096-4.721 8.39-6.609 10.915-1.24 1.658-2.412 3.226-3.397 4.742-6.244 9.322-7.78 18.667-4.329 26.31 1.175 2.61 2.765 4.648 4.167 6.447 1.077 1.38 2.093 2.684 2.424 3.675.513 1.533-.292 4.104-2.002 6.395-1.442 1.932-3.389 3.756-5.45 5.687-1.256 1.177-2.555 2.394-3.833 3.719-5.327 5.524-8.191 11.271-8.514 17.08-.272 4.87 1.219 9.035 2.534 12.71.29.809.58 1.615.842 2.424.019.056.038.112.057.168 1.112 3.161.783 5.077.291 5.594-.463.486-2.244.878-5.271.009-10.855-3.925-15.488-16.205-19.095-33.426-.009-.043-.018-.085-.028-.128-1.973-8.665-4.104-17.077-8.451-24.734-.044-.077-.089-.153-.135-.229-.979-1.59-1.946-3.081-2.874-4.512-1.123-1.731-2.155-3.325-3.042-4.848 14.901-19.862 37.171-33.888 62.715-37.998z" fill="#d9b179" data-original="#000000" style="" class=""/><path d="m276.464 298.066-8.511-15.562c-4.655-8.759-17.667-8.757-22.32 0l-8.512 15.562-15.562 8.512c-8.758 4.654-8.756 17.667 0 22.319l15.562 8.512 8.512 15.563c4.655 8.758 17.666 8.755 22.319 0l8.512-15.563 15.562-8.512c8.76-4.655 8.756-17.667 0-22.319zm-7.788 26.505c-2.137 1.171-3.884 2.919-5.052 5.055l-6.832 12.491-6.831-12.491c-1.168-2.136-2.915-3.884-5.057-5.057l-12.491-6.831 12.495-6.834c2.137-1.171 3.884-2.919 5.052-5.055l6.831-12.491 6.831 12.491c1.168 2.136 2.915 3.884 5.057 5.057l12.491 6.832z" fill="#d9b179" data-original="#000000" style="" class=""/><path d="m403.66 80.105 16.19 8.854 8.855 16.191c4.723 8.887 17.926 8.885 22.647 0l8.855-16.19 16.19-8.855c8.887-4.723 8.885-17.925 0-22.647l-16.19-8.855-8.855-16.189c-4.723-8.887-17.926-8.885-22.647 0l-8.855 16.19-16.19 8.854c-8.887 4.723-8.883 17.925 0 22.647zm23.926-18.637c2.17-1.187 3.944-2.961 5.131-5.131l7.313-13.37 7.312 13.37c1.187 2.171 2.962 3.945 5.131 5.131l13.37 7.313-13.368 7.312c-2.171 1.187-3.946 2.961-5.133 5.132l-7.313 13.37-7.312-13.37c-1.187-2.17-2.961-3.944-5.13-5.131l-13.371-7.312z" fill="#d9b179" data-original="#000000" style="" class=""/><path d="m34.858 201.77 15.573 8.518 8.518 15.575c4.657 8.759 17.67 8.757 22.324-.001l8.518-15.574 15.574-8.518c8.758-4.658 8.756-17.669 0-22.325 0 0 0 0-.001 0l-15.573-8.518-8.518-15.574c-2.232-4.082-6.509-6.617-11.161-6.618-4.653 0-8.93 2.536-11.163 6.618l-8.517 15.574-15.574 8.518c-8.761 4.656-8.758 17.671 0 22.325zm23.358-18.004c2.139-1.171 3.887-2.92 5.055-5.057l6.84-12.507 6.838 12.504c1.168 2.139 2.918 3.889 5.059 5.061l12.506 6.841-12.507 6.84c-2.141 1.172-3.89 2.922-5.057 5.058l-6.84 12.507-6.839-12.506c-1.169-2.138-2.917-3.887-5.058-5.059l-12.506-6.84z" fill="#d9b179" data-original="#000000" style="" class=""/><path d="m511.312 405.95c-2.924-11.305-14.061-18.389-25.415-16.546l-7.644-26.72c-1.729-6.045-8.065-9.603-14.126-7.92l-25.023 6.931c-3.992 1.105-6.331 5.237-5.226 9.229 1.106 3.992 5.239 6.332 9.23 5.226l21.679-6.004 6.546 22.881-195.856 50.031c-.554.142-1.095.31-1.629.49l-7.635-18.402 143.177-39.656c3.992-1.105 6.331-5.237 5.226-9.229-1.106-3.991-5.238-6.332-9.23-5.226l-72.452 20.067 116.352-56.621c8.778-4.656 2.511-17.52-6.563-13.488l-123.179 59.944 91.604-69.348c3.303-2.5 3.953-7.204 1.453-10.506-2.499-3.303-7.203-3.953-10.507-1.453l-146.06 110.573-146.06-110.573c-3.303-2.501-8.006-1.85-10.507 1.453-2.5 3.302-1.85 8.006 1.453 10.506l91.604 69.348-123.179-59.945c-9.081-4.032-15.337 8.838-6.563 13.488l116.351 56.621-131.195-36.338c-6.063-1.677-12.397 1.875-14.126 7.921l-7.644 26.721c-11.354-1.835-22.492 5.243-25.415 16.544-3.266 11.649 4.44 24.577 16.216 27.325l17.798 4.546c4.015 1.028 8.098-1.397 9.122-5.41 1.025-4.014-1.397-8.098-5.411-9.123l-17.797-4.546c-1.957-.5-3.596-1.725-4.615-3.449-1.003-1.698-1.285-3.683-.792-5.587 1.03-3.981 5.145-6.386 9.173-5.357l208.427 53.242c3.321.849 5.641 3.808 5.641 7.196.962 23.158 34.074 23.148 35.032 0 0-3.389 2.32-6.348 5.64-7.196l208.427-53.242c4.031-1.029 8.144 1.375 9.174 5.357.493 1.904.211 3.889-.792 5.587-1.019 1.725-2.658 2.949-4.614 3.449l-199.021 50.839c-2.502.639-4.498 2.52-5.287 4.979-9.686 29.924-52.41 29.909-62.088 0-.788-2.459-2.785-4.34-5.286-4.979l-146.841-37.51c-4.009-1.025-8.097 1.396-9.122 5.41s1.397 8.098 5.41 9.123l143.041 36.539c16.101 38.436 71.603 38.418 87.691 0l195.218-49.867c11.775-2.749 19.482-15.677 16.215-27.325zm-470.578-12.924 6.546-22.88 198.574 54.999-7.635 18.402c-.535-.18-1.076-.349-1.63-.49zm215.299 74.216c-1.387 0-2.516-1.102-2.516-2.455 0-4.125-1.144-8.028-3.142-11.397l5.658-13.637 5.658 13.637c-1.998 3.369-3.142 7.272-3.142 11.398 0 1.352-1.129 2.454-2.516 2.454z" fill="#d9b179" data-original="#000000" style="" class=""/></g></g></g></svg>
